<svg width="30" height="30" viewBox="0 0 30 30" fill="none" xmlns="http://www.w3.org/2000/svg">
<path d="M25.8875 4.56814C25.8875 4.56814 28.3156 3.62126 28.1125 5.92064C28.0456 6.86751 27.4388 10.1819 26.9663 13.7663L25.3475 24.385C25.3475 24.385 25.2125 25.9406 23.9981 26.2113C22.7844 26.4813 20.9631 25.2644 20.6256 24.9938C20.3556 24.7906 15.5669 21.7469 13.8806 20.2594C13.4081 19.8531 12.8681 19.0419 13.9481 18.095L21.0306 11.3313C21.84 10.5188 22.6494 8.62501 19.2769 10.925L9.83313 17.35C9.83313 17.35 8.75375 18.0269 6.73063 17.4181L2.34563 16.065C2.34563 16.065 0.726876 15.0506 3.4925 14.0363C10.2381 10.8575 18.535 7.61126 25.8869 4.56751" fill="#DD7365"/>
</svg>
