<svg width="50" height="51" viewBox="0 0 50 51" fill="none" xmlns="http://www.w3.org/2000/svg">
<g id="icon-park-outline:telegram">
<path id="Vector" d="M43.1403 8.11352C43.1403 8.11352 47.1872 6.53539 46.8486 10.3677C46.7372 11.9458 45.7257 17.4698 44.9382 23.4437L42.2403 41.1416C42.2403 41.1416 42.0153 43.7343 39.9913 44.1854C37.9684 44.6354 34.933 42.6073 34.3705 42.1562C33.9205 41.8177 25.9392 36.7448 23.1288 34.2656C22.3413 33.5885 21.4413 32.2364 23.2413 30.6583L35.0455 19.3854C36.3944 18.0312 37.7434 14.875 32.1226 18.7083L16.383 29.4166C16.383 29.4166 14.584 30.5448 11.2122 29.5302L3.90382 27.275C3.90382 27.275 1.2059 25.5844 5.81528 23.8937C17.058 18.5958 30.8861 13.1854 43.1392 8.11248" fill="#4DA3DD"/>
</g>
</svg>
