<svg width="31" height="30" viewBox="0 0 31 30" fill="none" xmlns="http://www.w3.org/2000/svg">
<g id="icons8-twitterx 1">
<path id="Vector" d="M5.26687 2.5C4.01119 2.5 2.99414 3.51705 2.99414 4.77273V25.2273C2.99414 26.483 4.01119 27.5 5.26687 27.5H25.7214C26.9771 27.5 27.9941 26.483 27.9941 25.2273V4.77273C27.9941 3.51705 26.9771 2.5 25.7214 2.5H5.26687ZM8.27646 8.18182H13.5166L16.575 12.5542L20.3592 8.18182H22.0083L17.3163 13.6151L23.0558 21.8182H17.8157L14.4221 16.9664L10.2318 21.8182H8.55611L13.6764 15.9033L8.27646 8.18182ZM10.8111 9.52681L18.486 20.4665H20.519L12.8419 9.52681H10.8111Z" fill="#DD7365"/>
</g>
</svg>
